<?xml version="1.0" encoding="UTF-8" standalone="no"?>
<svg
   version="1.0"
   width="200pt"
   height="53pt"
   viewBox="0 0 200 53"
   preserveAspectRatio="xMidYMid"
   id="svg11"
   sodipodi:docname="Flixter__1_-removebg-preview-_1_.svg"
   inkscape:version="1.3 (0e150ed, 2023-07-21)"
   xmlns:inkscape="http://www.inkscape.org/namespaces/inkscape"
   xmlns:sodipodi="http://sodipodi.sourceforge.net/DTD/sodipodi-0.dtd"
   xmlns="http://www.w3.org/2000/svg"
   xmlns:svg="http://www.w3.org/2000/svg">
  <defs
     id="defs11" />
  <sodipodi:namedview
     id="namedview11"
     pagecolor="#ffffff"
     bordercolor="#000000"
     borderopacity="0.25"
     inkscape:showpageshadow="2"
     inkscape:pageopacity="0.0"
     inkscape:pagecheckerboard="0"
     inkscape:deskcolor="#d1d1d1"
     inkscape:document-units="pt"
     inkscape:zoom="1.4432365"
     inkscape:cx="118.4837"
     inkscape:cy="51.966535"
     inkscape:window-width="1512"
     inkscape:window-height="945"
     inkscape:window-x="0"
     inkscape:window-y="37"
     inkscape:window-maximized="0"
     inkscape:current-layer="svg11" />
  <g
     transform="matrix(0.06381382,0,0,-0.06666298,-63.666799,196.06371)"
     fill="#000000"
     stroke="none"
     id="g11"
     style="fill:#aa0000">
    <path
       d="m 2390,2745 v -45 h 60 60 v 45 45 h -60 -60 z"
       id="path1"
       style="fill:#aa0000" />
    <path
       d="m 1094,2761 c -89,-41 -99,-171 -16,-230 21,-15 45,-21 81,-21 42,0 56,5 85,30 18,17 37,42 40,57 7,26 7,26 27,-13 10,-22 32,-47 48,-57 36,-21 102,-22 142,-1 41,21 72,91 63,140 -9,47 -63,104 -100,106 -85,4 -129,-17 -157,-74 l -16,-33 -9,25 c -14,35 -53,69 -93,80 -44,13 -47,13 -95,-9 z m 98,-73 c 27,-22 30,-53 7,-81 -23,-31 -54,-35 -81,-10 -53,48 18,135 74,91 z m 276,-4 c 12,-8 22,-26 22,-40 0,-29 -32,-64 -60,-64 -11,0 -29,9 -40,20 -11,11 -20,29 -20,40 0,25 34,60 58,60 10,0 28,-7 40,-16 z"
       id="path2"
       style="fill:#aa0000" />
    <path
       d="m 2210,2525 v -255 h 55 55 v 239 c 0,132 3,246 6,255 5,14 -3,16 -55,16 h -61 z"
       id="path3"
       style="fill:#aa0000" />
    <path
       d="m 3036,2763 c -3,-10 -8,-35 -12,-55 l -6,-38 h 61 c 58,0 61,-1 56,-22 -11,-53 -65,-345 -65,-356 0,-8 20,-12 59,-12 h 59 l 10,48 c 5,26 22,113 38,195 l 28,147 h 61 62 l 10,55 10,55 h -183 c -165,0 -183,-2 -188,-17 z"
       id="path4"
       style="fill:#aa0000" />
    <path
       d="m 1860,2520 v -250 h 60 60 v 95 95 h 85 85 v 50 50 h -85 -85 v 50 50 h 85 85 v 55 55 h -145 -145 z"
       id="path5"
       style="fill:#aa0000" />
    <path
       d="m 3472,2634 c -115,-57 -155,-204 -81,-298 66,-84 208,-85 295,-1 24,23 44,47 44,53 0,21 -98,15 -127,-8 -47,-37 -133,-14 -133,35 0,12 24,15 138,17 l 137,3 3,29 c 6,50 -8,95 -41,133 -60,68 -145,82 -235,37 z m 148,-86 c 37,-40 27,-48 -60,-48 -87,0 -95,6 -55,45 32,33 86,34 115,3 z"
       id="path6"
       style="fill:#aa0000" />
    <path
       d="m 3993,2650 c -18,-4 -40,-14 -50,-21 -15,-12 -16,-12 -10,4 6,16 1,18 -51,15 l -57,-3 -32,-165 c -18,-91 -32,-173 -33,-183 0,-16 8,-18 57,-15 l 57,3 21,109 c 25,129 46,156 120,156 h 43 l 11,50 c 6,28 11,53 11,55 0,7 -50,4 -87,-5 z"
       id="path7"
       style="fill:#aa0000" />
    <path
       d="m 2390,2455 v -185 h 60 60 v 185 185 h -60 -60 z"
       id="path8"
       style="fill:#aa0000" />
    <path
       d="m 2610,2550 61,-90 -66,-95 -66,-95 h 64 64 l 37,60 c 21,33 39,60 41,60 2,0 20,-27 40,-60 l 36,-60 h 65 64 l -27,42 c -16,24 -45,67 -65,97 l -37,53 52,76 c 29,42 56,82 60,89 6,10 -6,13 -55,13 h -63 l -28,-50 c -15,-27 -32,-52 -37,-55 -4,-3 -23,20 -40,50 l -31,55 h -65 -65 z"
       id="path9"
       style="fill:#aa0000" />
    <path
       d="m 1230,2505 c -29,-17 -113,-19 -141,-4 -19,10 -20,7 -17,-113 l 3,-123 223,-3 222,-2 v 125 c 0,121 -1,125 -19,115 -28,-15 -112,-12 -141,5 -14,8 -43,14 -65,14 -22,0 -51,-6 -65,-14 z m 82,-96 c 29,-17 54,-32 56,-34 4,-4 -97,-65 -108,-65 -6,0 -10,29 -10,65 0,36 2,65 5,65 2,0 28,-14 57,-31 z"
       id="path10"
       style="fill:#aa0000" />
    <path
       d="m 1582,2493 -43,-25 3,-70 3,-71 53,-30 c 34,-19 57,-26 63,-20 5,5 8,59 7,124 -3,132 -9,137 -86,92 z"
       id="path11"
       style="fill:#aa0000" />
  </g>
</svg>
